<svg width="738" height="796" viewBox="0 0 738 796" fill="none" xmlns="http://www.w3.org/2000/svg">
<g clip-path="url(#clip0_2003_1365)">
<path d="M193.56 83.2623C190.494 84.6625 187.216 85.9179 183.726 87.0328C180.269 88.1427 176.407 89.022 172.134 89.6804C161.594 91.3043 153.096 89.6478 146.518 84.5953C139.954 79.5558 135.426 71.255 133.066 59.6716C130.557 47.3601 131.424 37.6032 135.808 30.3707C140.182 23.1539 147.971 18.5986 159.105 16.8684C163.323 16.2129 167.168 15.9689 170.628 16.1285C174.125 16.2828 177.525 16.664 180.826 17.2706C180.276 19.8312 179.731 22.3919 179.192 24.9527C177.627 24.6735 176.088 24.4434 174.574 24.2617C173.06 24.0801 171.538 23.9689 170.009 23.9286C168.517 23.8849 166.981 23.9122 165.402 24.0174C163.823 24.1227 162.183 24.3075 160.483 24.5713C156.469 25.1946 153.137 26.4 150.496 28.1737C147.85 29.9148 145.831 32.1844 144.442 34.9751C143.046 37.7336 142.252 40.9658 142.055 44.6714C141.852 48.345 142.196 52.4289 143.078 56.9294C143.986 61.5585 145.229 65.5777 146.797 68.9842C148.365 72.3912 150.291 75.1676 152.569 77.3153C154.841 79.4307 157.478 80.8832 160.483 81.6784C163.488 82.4736 166.908 82.5704 170.755 81.9772C174.291 81.4319 177.606 80.6475 180.705 79.6195C183.805 78.5914 186.862 77.3952 189.88 76.0297C191.111 78.4393 192.338 80.85 193.56 83.2623Z" fill="black"/>
<path d="M205.666 73.1814C207.176 73.5205 208.749 73.8198 210.386 74.08C212.058 74.3357 213.736 74.5265 215.421 74.6518C217.141 74.7734 218.851 74.8318 220.551 74.8269C222.251 74.8224 223.902 74.7266 225.505 74.5385C228.258 74.2156 230.71 73.6345 232.866 72.7909C235.022 71.9475 236.834 70.8802 238.302 69.5854C239.767 68.2579 240.838 66.7246 241.514 64.9836C242.186 63.2097 242.395 61.2511 242.135 59.1081C241.876 56.9648 241.241 55.2622 240.226 54C239.242 52.7014 237.895 51.6756 236.182 50.9255C234.505 50.1716 232.471 49.6088 230.079 49.2418C227.685 48.8421 224.963 48.467 221.917 48.1225C218.537 47.7168 215.392 47.2109 212.477 46.6003C209.594 45.9525 207.022 44.9894 204.759 43.7059C202.531 42.418 200.671 40.718 199.18 38.6024C197.685 36.4546 196.67 33.6728 196.146 30.2578C195.718 27.4662 195.943 24.8561 196.832 22.427C197.72 19.9981 199.175 17.8477 201.201 15.9804C203.221 14.0804 205.763 12.5035 208.823 11.2574C211.884 10.0113 215.342 9.16116 219.191 8.71537C221.06 8.49888 222.982 8.39696 224.955 8.4095C226.924 8.38769 228.885 8.45861 230.837 8.61403C232.788 8.77053 234.713 9.01645 236.609 9.35291C238.505 9.68937 240.296 10.0899 241.98 10.5539C241.166 13.1057 240.359 15.6581 239.558 18.211C238.193 17.8844 236.79 17.5638 235.349 17.2488C233.945 16.9298 232.454 16.6721 230.878 16.4762C229.302 16.2804 227.625 16.1812 225.85 16.1796C224.107 16.1414 222.232 16.2374 220.228 16.4692C218.224 16.7015 216.338 17.1243 214.573 17.7369C212.808 18.3496 211.276 19.1716 209.981 20.2009C208.717 21.1929 207.766 22.4158 207.128 23.8682C206.489 25.3206 206.311 27.0002 206.588 28.9072C206.899 31.0441 207.569 32.7511 208.595 34.0285C209.653 35.2688 211.037 36.2515 212.745 36.979C214.49 37.7023 216.572 38.2529 218.991 38.635C221.407 38.9846 224.143 39.3336 227.207 39.6891C230.604 40.1068 233.741 40.6652 236.617 41.3592C239.524 42.0167 242.069 43.0212 244.25 44.3672C246.467 45.7098 248.275 47.4815 249.675 49.6787C251.077 51.8764 251.964 54.6745 252.348 58.0738C252.754 61.67 252.386 64.8761 251.256 67.6901C250.158 70.4684 248.441 72.8601 246.108 74.8703C243.809 76.8774 240.981 78.4945 237.62 79.7315C234.294 80.9647 230.61 81.8149 226.557 82.2903C218.903 83.1883 211.289 82.72 203.646 80.8849C204.313 78.3167 204.986 75.749 205.666 73.1814Z" fill="black"/>
<path d="M263.877 5.30732C267.334 5.01067 270.793 4.72565 274.253 4.45294L280.773 75.7518C277.505 76.0113 274.237 76.2817 270.97 76.5637L263.877 5.30732Z" fill="black"/>
<path d="M320.65 1.537C324.157 1.37286 327.482 1.59598 330.615 2.20133C333.786 2.80526 336.602 3.86483 339.057 5.3737C341.551 6.91469 343.518 8.91004 344.961 11.3542C346.44 13.7979 347.229 16.7096 347.342 20.0893C347.455 23.4682 346.862 26.4206 345.578 28.9461C344.33 31.4712 342.552 33.5833 340.247 35.2877C338.466 36.6095 336.464 37.6606 334.239 38.4439C332.05 39.2258 329.694 39.804 327.168 40.1808C327.152 40.2135 327.136 40.2485 327.12 40.2823C328.189 40.8657 329.377 41.7108 330.682 42.818C331.985 43.892 333.349 45.181 334.77 46.6853C336.191 48.1895 337.648 49.8272 339.14 51.5982C340.63 53.3362 342.136 55.1753 343.656 57.1156C347.51 62.0142 351.317 66.9286 355.075 71.8581C351.249 71.9536 347.423 72.0653 343.596 72.1934C339.444 66.5278 335.232 60.8804 330.961 55.252C328.655 52.1646 326.639 49.6785 324.938 47.8C323.27 45.9181 321.688 44.4496 320.198 43.3941C318.742 42.3368 317.268 41.6476 315.779 41.3269C314.29 41.0063 312.579 40.8988 310.648 41.0062C309.969 41.0444 309.29 41.0826 308.611 41.1219L310.77 73.6935C307.535 73.8806 304.299 74.0784 301.064 74.2883L295.748 2.91658C304.043 2.38545 312.344 1.92515 320.65 1.537ZM322.374 33.1293C324.64 33.0224 326.697 32.6986 328.546 32.1551C330.395 31.6114 331.965 30.8347 333.256 29.8218C334.581 28.7745 335.592 27.4757 336.287 25.924C336.981 24.3725 337.287 22.5367 337.198 20.4168C337.109 18.2965 336.651 16.4886 335.819 14.9927C334.987 13.497 333.854 12.2949 332.419 11.3885C331.018 10.4475 329.352 9.7842 327.422 9.40129C325.491 9.01848 323.368 8.87994 321.057 8.98791C316.213 9.21476 311.371 9.46618 306.53 9.74227L308.13 33.873C312.877 33.6009 317.625 33.3534 322.374 33.1293Z" fill="black"/>
<path d="M360.551 0.234674C380.459 -0.132319 400.381 -0.0716749 420.296 0.434373L420.075 8.07983C411.957 7.87424 403.836 7.74334 395.716 7.68609L395.225 71.4769C391.96 71.4551 388.695 71.4495 385.428 71.4549L385.354 7.65247C377.141 7.65716 368.929 7.73647 360.719 7.88861L360.551 0.234674Z" fill="black"/>
<path d="M434.345 40.9175C447.828 41.4138 461.298 42.1247 474.747 43.0578L474.159 50.3827C460.803 49.457 447.425 48.7517 434.032 48.2605L434.345 40.9175Z" fill="black"/>
<path d="M499.314 4.8382C514.028 6.11433 528.723 7.64959 543.391 9.45173L542.313 17.0273C531.183 15.6593 520.036 14.4465 508.875 13.3853L506.723 32.9825C514.481 33.7197 522.231 34.5317 529.971 35.4198L528.965 43.0036C521.282 42.1218 513.589 41.316 505.888 40.5844L501.913 76.7674C498.679 76.4604 495.443 76.1675 492.205 75.8879L499.314 4.8382Z" fill="black"/>
<path d="M557.277 11.2392C571.926 13.2108 586.544 15.4518 601.123 17.9702L599.614 25.4878C588.555 23.5756 577.472 21.8243 566.369 20.2308L563.13 39.7025C570.842 40.811 578.542 41.9973 586.229 43.2628L584.794 50.7915C577.167 49.5346 569.526 48.3563 561.874 47.2556L557.151 75.6539C568.039 77.224 578.898 78.9566 589.723 80.8559L588.205 88.372C574.279 85.926 560.295 83.7585 546.262 81.861L557.277 11.2392Z" fill="black"/>
<path d="M620.556 21.4966C623.982 22.1484 627.406 22.8156 630.827 23.4987L614.594 93.3573C611.423 92.7156 608.248 92.0889 605.07 91.4769L620.556 21.4966Z" fill="black"/>
<path d="M682.469 143.745C682.469 143.745 537.888 178.946 389.414 102.221M99.2632 143.823C99.2632 143.823 243.789 178.912 392.263 102.188M680.156 145.862C612.438 362.342 837.817 581.212 388.881 792.757M101.633 146.006C169.351 362.486 -56.8779 581.247 392.058 792.792" stroke="white" stroke-width="1.38661"/>
<path opacity="0.84" d="M104.91 148.211C197.772 164.195 294.686 151.404 390.777 107.045C494.866 155.541 589.016 164.999 675.905 147.661C650.161 256.01 673.741 353.293 675.663 456.69C676.468 620.525 544.693 710.841 390.2 788.557C244.311 712.353 110.222 627.921 106.188 452.821C107.527 347.892 134.248 259.111 104.91 148.211Z" fill="#06348E"/>
<path opacity="0.84" d="M383.258 114.858C308.134 148.178 225.423 164.32 143.784 157.192C132.303 156.25 120.866 154.795 109.481 152.993C123.092 205.713 124.125 260.959 119.64 315.058C116.181 362.47 109.622 409.712 109.759 457.241C118.032 520.42 120.186 557.939 174.19 631.037C279.732 326.884 492.783 240.568 667.251 176.054C668.573 168.177 670.057 160.326 671.839 152.548C602.435 165.856 530.226 160.115 462.787 139.085C438.284 131.552 414.32 122.182 390.982 111.381C388.407 112.54 385.833 113.699 383.258 114.858Z" fill="url(#paint0_linear_2003_1365)"/>
<path opacity="0.84" d="M384.541 117.939C301.793 154.71 209.665 170.493 120.136 157.943C117.519 158.03 111.889 155.149 114.538 160.098C127.542 215.369 126.989 272.934 121.746 329.232C118.198 373.354 112.33 417.284 113.182 461.548C187.429 262.102 211.346 254.791 326.272 198.222C393.325 168.866 433.345 176.223 506.94 177.085C549.849 182.17 615.493 186.663 641.288 180.779C661.76 173.2 663.505 166.038 667.615 156.73C590.981 170.505 511.389 161.132 438.271 134.406C422.248 128.675 406.487 122.163 390.99 115.044C388.84 116.01 386.691 116.974 384.541 117.939Z" fill="url(#paint1_linear_2003_1365)"/>
<path d="M679.21 146.532C679.21 146.532 536.148 181.437 389.236 105.357M102.136 146.609C102.136 146.609 245.142 181.403 392.054 105.324M676.92 148.631C609.914 363.293 832.923 580.324 388.708 790.093M104.482 148.774C171.487 363.436 -52.3627 580.36 391.852 790.128" stroke="black" stroke-width="1.3735"/>
<path d="M632.504 193.125C619.855 297.738 762.792 571.534 386.812 754.184" stroke="white" stroke-width="1.61584" stroke-linecap="round" stroke-linejoin="bevel"/>
<path d="M144.644 189.624C156.99 294.633 17.4693 569.463 384.465 752.804" stroke="white" stroke-width="1.59943" stroke-linecap="round" stroke-linejoin="bevel"/>
<path d="M144.639 189.705C211.505 200.413 288.524 192.022 350.616 165.942" stroke="white" stroke-width="1.59525" stroke-linecap="round" stroke-linejoin="bevel"/>
<path d="M313.787 552.012C307.472 566.122 295.681 579.033 294.954 594.882C296.78 602.725 306.039 606.725 307.86 615.073C316.124 636.603 319.625 659.925 318.955 682.881C339.471 702.663 348.409 730.006 356.856 756.18C377.899 756.283 398.942 756.407 419.984 756.495C422.861 742.393 418.42 728.346 412.363 715.656C388.106 707.506 372.42 682.839 373.546 658.02C371.124 637.61 383.006 619.354 391.173 601.4C396.681 588.433 407.387 579.267 418.963 571.545C384.869 563.256 350.77 554.986 316.678 546.693C315.714 548.466 314.751 550.239 313.787 552.012Z" fill="white"/>
<path d="M319.857 555.017C312.553 569.292 298.088 591.549 302.738 594.975C321.17 607.828 327.366 665.217 326.021 679.346C347.629 702.364 353.039 722.717 361.656 747.785L411.805 748.041C413.234 740.59 408.776 727.859 405.39 720.864C392.928 716.338 378.986 704.808 370.457 687.635C365.613 677.007 363.665 658.944 364.928 640.083C370.641 622.923 386.716 583.04 400.291 574.533" stroke="black" stroke-width="1.28641"/>
<path opacity="0.944099" d="M305.882 593.961L324.337 567.85L389.85 579.194L378.422 597.154C354.19 577.495 350.512 595.409 323.974 630.206C320.629 614.972 315.029 603.621 305.882 593.961Z" fill="#D3D3D3"/>
<g opacity="0.355556">
<path d="M249.309 355.022C259.024 355.022 266.943 347.701 266.943 338.642C266.943 329.578 259.024 322.3 249.309 322.3C239.595 322.3 231.698 329.578 231.698 338.642C231.698 347.701 239.595 355.022 249.309 355.022Z" fill="white"/>
<path d="M249.309 444.946C259.024 444.946 266.943 437.626 266.943 428.595C266.943 419.565 259.024 412.203 249.309 412.203C239.595 412.203 231.698 419.565 231.698 428.595C231.698 437.626 239.595 444.946 249.309 444.946Z" fill="white"/>
<path d="M346.07 355.022C355.807 355.022 363.681 347.701 363.681 338.642C363.681 329.578 355.807 322.3 346.07 322.3C336.334 322.3 328.459 329.578 328.459 338.642C328.459 347.701 336.334 355.022 346.07 355.022Z" fill="white"/>
<path d="M346.071 444.946C355.808 444.946 363.682 437.626 363.682 428.595C363.682 419.565 355.808 412.203 346.071 412.203C336.334 412.203 328.459 419.565 328.459 428.595C328.459 437.626 336.334 444.946 346.071 444.946Z" fill="white"/>
<path d="M442.787 355.022C452.546 355.022 460.443 347.701 460.443 338.642C460.443 329.578 452.546 322.3 442.787 322.3C433.073 322.3 425.221 329.578 425.221 338.642C425.221 347.701 433.073 355.022 442.787 355.022Z" fill="white"/>
<path d="M249.309 265.073C259.024 265.073 266.943 257.744 266.943 248.701C266.943 239.649 259.024 232.35 249.309 232.35C239.595 232.35 231.698 239.649 231.698 248.701C231.698 257.744 239.595 265.073 249.309 265.073Z" fill="white"/>
<path d="M346.07 265.073C355.807 265.073 363.681 257.744 363.681 248.701C363.681 239.649 355.807 232.35 346.07 232.35C336.334 232.35 328.459 239.649 328.459 248.701C328.459 257.744 336.334 265.073 346.07 265.073Z" fill="white"/>
<path d="M442.787 265.073C452.546 265.073 460.443 257.744 460.443 248.701C460.443 239.649 452.546 232.35 442.787 232.35C433.073 232.35 425.221 239.649 425.221 248.701C425.221 257.744 433.073 265.073 442.787 265.073Z" fill="white"/>
<path d="M442.787 444.946C452.546 444.946 460.443 437.626 460.443 428.595C460.443 419.565 452.546 412.203 442.787 412.203C433.073 412.203 425.221 419.565 425.221 428.595C425.221 437.626 433.073 444.946 442.787 444.946Z" fill="white"/>
<path d="M539.57 355.022C549.284 355.022 557.181 347.701 557.181 338.642C557.181 329.578 549.284 322.3 539.57 322.3C529.834 322.3 521.981 329.578 521.981 338.642C521.981 347.701 529.834 355.022 539.57 355.022Z" fill="white"/>
<path d="M539.57 444.946C549.284 444.946 557.181 437.626 557.181 428.595C557.181 419.565 549.284 412.203 539.57 412.203C529.834 412.203 521.981 419.565 521.981 428.595C521.981 437.626 529.834 444.946 539.57 444.946Z" fill="white"/>
<path d="M539.57 265.073C549.284 265.073 557.181 257.744 557.181 248.68C557.181 239.671 549.284 232.33 539.57 232.33C529.834 232.33 521.981 239.671 521.981 248.68C521.981 257.744 529.834 265.073 539.57 265.073Z" fill="white"/>
</g>
<path d="M658.483 534.6C637.584 551.471 616.701 568.362 595.792 585.22C619.565 613.81 623.361 652.124 628.403 687.33C631.397 710.438 632.866 733.699 634.481 756.929C657.013 756.926 679.545 756.87 702.077 756.87C706.7 743.265 706.189 725.863 693.376 716.689C680.926 691.491 678.683 662.78 674.146 635.45C669.1 601.789 668.011 567.681 671.931 533.846C676.148 518.161 667.517 526.851 660.052 533.329L658.899 534.262L658.483 534.6Z" fill="white"/>
<path opacity="0.944099" d="M606.106 582.021L661.347 547.093L664.843 573.803L650.858 575.857L622.888 610.786L606.106 582.021Z" fill="#E6E6E6"/>
<path d="M606.847 586.677C628.951 612.728 637.8 677.585 642.152 749.278L696.039 749.22C698.305 741.646 697.785 729.515 689.712 723.89C675.92 714.28 665.604 632.475 664.507 618.681C660.905 587.143 661.018 572.513 663.797 540.675" stroke="black" stroke-width="1.28641"/>
<path d="M540.255 174.767C529.52 188.602 528.163 210.319 539.888 223.875C550.162 239.46 560.436 255.046 570.71 270.631C552.975 254.832 538.134 235.008 515.281 225.724C511.893 230.405 512.853 243.299 511.135 251.149C509.493 259.598 508.179 267.941 516.188 273.664C532.003 294.1 547.792 314.676 563.746 334.923C576.775 349.092 577.975 370.883 566.989 386.546C563.322 392.553 555.34 402.103 564.228 407.249C542.738 425.072 516.368 437.293 488.134 439.79C477.08 442.637 466.078 442.068 454.924 441.178C447.887 440.255 436.101 445.82 441.358 453.75C449.125 461.027 434.958 458.375 429.524 459.525C389.925 460.982 350.307 462.1 310.75 464.503C295.683 475.563 279.88 489.355 260.41 490.242C245.403 477.242 236.237 458.991 220.729 445.599C214.142 440.756 206.445 447.625 207.501 454.637C206.002 457.309 197.627 444.986 194.155 441.298C184.177 431.92 184.054 417.768 188.526 405.765C196.089 377.596 225.268 359.872 254.081 359.672C267.337 358.735 280.518 360.878 293.668 362.176C290.26 352.257 285.792 342.091 275.471 337.496C265.385 331.316 284.092 333.514 288.821 333.234C314.075 334.541 340.731 339.219 366.433 343.444C378.584 341.938 374.073 327.372 370.055 320.123C349.529 278.67 314.006 244.605 272.452 223.38C248.674 212.7 222.281 209.227 196.347 208.514C193.45 196.364 177.475 201.41 168.404 202.622C136.869 208.407 106.899 223.123 85.6261 246.984C73.007 260.447 62.5362 275.741 53.8846 291.908C53.2673 277.945 57.4474 263.047 52.7458 249.668C47.4433 240.087 35.7062 247.096 31.7153 254.23C-1.66863 299.936 -7.55997 361.484 8.71349 414.569C18.9421 446.864 35.4543 478.794 64.1483 498.973C68.7483 502.78 75.3364 507.033 79.0543 509.947C71.1817 507.387 57.5869 507.062 58.3521 518.298C66.238 533.387 84.2155 539.695 98.7039 547.353C124.447 559.405 153.769 565.858 181.996 559.047C197.526 556.623 212.756 552.682 227.883 548.527C209.691 577.494 187.027 603.845 162.214 627.575C152.539 631.908 157.285 643.853 153.989 652.07C148.635 684.696 131.077 713.405 118.415 743.487C114.531 752.128 122.818 760.441 131.804 758.335C158.594 759.174 185.399 759.76 212.203 759.16C215.084 744.141 213.452 725.165 197.698 717.548C189.874 714.963 199.309 707.272 199.618 702.133C207.466 682.639 217.551 660.482 240.116 654.252C268.416 643.934 292.409 623.472 305.887 596.919C312.81 585.536 322.103 569.709 338.221 573.513C395.329 575.573 448.421 602.213 505.893 601.818C516.818 602.266 527.756 601.789 538.649 600.979C536.34 620.847 527.471 640.495 528.897 661.122C537.331 664.981 539.677 667.555 538.328 677.624C537.852 696.406 540.375 715.848 532.748 733.613C530.603 741.415 530.47 749.543 530.006 757.558C553.641 756.746 577.48 758.859 600.99 757.187C614.326 752.826 608.201 736.4 600.263 729.713C594.78 725.292 590.07 719.985 591.462 712.423C590.492 688.357 590.243 664.159 595.376 640.439C598.607 623.296 601.561 605.783 608.523 589.654C638.766 576.837 668.89 556.967 680.178 525.106C684.875 512.919 687.473 499.657 689.2 487.069C700.508 490.958 704.718 477.257 703.54 468.664C703.872 457.941 703.942 447.155 702.486 436.506C710.831 449.707 707.546 430.161 708.997 423.951C710.478 406.923 709.05 389.526 703.566 373.245C711.364 376.67 719.523 380.018 724.444 387.229C733.516 390.42 738.629 381.215 737.938 373.325C738.44 350.257 729.249 328.388 721.465 307.038C717.807 297.177 708.932 290.578 698.603 288.62C681.882 275.135 670.474 255.04 650.659 244.818C639.673 237.78 625.853 236.537 613.732 234.665C589.664 213.435 568.44 189.354 545.745 166.76C543.915 169.429 542.085 172.098 540.255 174.767Z" fill="white"/>
<path opacity="0.944099" d="M716.602 367.724L730.94 376.925L727.479 345.931L709.679 301.378L692.869 294.598L671.608 273.774L672.102 295.566L650.841 290.239C650.841 290.239 651.336 303.315 661.224 309.611C671.113 315.906 669.877 324.865 669.877 324.865L671.113 336.972C673.667 337.291 690.476 362.562 689.818 364.966C688.744 368.89 659.573 375.325 643.324 370.619C635.865 368.459 627.974 360.079 631.729 355.778C635.611 351.332 575.285 343.85 584.078 353.284C590.339 360.001 588.25 395.216 556.64 422.305C537.364 438.825 496.437 443.631 469.232 453.128C461.898 455.688 452.162 465.305 427.248 467.706C394.413 470.869 343.556 472.154 312.591 473.127C298.001 473.585 296.059 485.658 288.824 489.694C276.621 496.501 264.836 496.869 264.678 499.751C264.528 502.509 231.227 452.942 222.235 464.532C208.026 482.847 178.158 436.197 187.173 442.611C201.176 452.574 219.054 522.273 167.528 500.284C132.899 485.506 138.353 483.279 138.304 512.525C138.267 534.962 100.149 529.82 82.7945 521.648C59.4474 510.654 105.058 545.053 148.653 551.114C186.258 556.342 219.202 545.37 213.263 542.758C206.677 539.861 200.255 544.279 233.85 538.734C302.848 527.346 386.948 500 369.033 509.167C330.842 528.708 446.424 511.029 494.101 491.346C525.334 478.452 569.469 448.797 557.222 476.601C553.58 484.87 625.518 376.122 632.524 412.239C634.617 423.029 648.6 376.86 658.984 382.191C682.218 394.118 700.244 418.917 701.433 417.138C705.841 410.546 680.505 336.134 684.766 329.907C690.145 322.044 694.461 318.588 696.33 316.148L716.602 367.724Z" fill="#E6E6E6"/>
<path opacity="0.944099" d="M44.6143 319.716L101.952 240.271C130.153 222.984 154.517 216.028 177.47 212.876L181.666 218.355L241.801 221.348L294.943 245.75L344.289 292.661L366.044 333.34L353.683 329.466C353.683 329.466 297.012 273.977 252.323 258.762C235.301 252.966 163.44 243.664 181.234 252.85C188.075 256.382 148.021 266.194 116.846 279.585C85.9161 292.872 44.6143 319.716 44.6143 319.716Z" fill="#E6E6E6"/>
<path d="M701.396 423.513C707.215 356.689 662.996 334.258 679.345 334.445C680.722 365.245 719.774 365.881 727.834 379.114C730.948 384.227 732.569 361.596 724.831 340.023C719.691 325.694 717.148 312.056 710.265 303.069C703.408 295.943 704.348 300.48 691.889 293.91C672.098 275.421 654.441 241.81 612.137 243.401C593.826 228.651 569.126 201.243 547.118 179.172C538.006 190.675 539.726 200.887 541.162 211.134L582.188 273.368C576.012 301.51 546.622 249.073 520.955 237.529L518.005 263.196C554.207 306.069 591.898 376.437 632.288 349.219C625.311 353.398 619.28 356.423 606.217 354.729C581.836 351.568 559.953 313.122 571.031 331.356C607.47 377.118 544.8 413.513 579.228 396.422C593.823 389.176 577 409.811 557.706 422.131C539.411 433.814 527.247 441.308 500.292 445.864C456.866 453.205 471.123 449.074 458.33 448.953C431.22 448.697 471.82 459.195 461.416 462.325C435.165 470.222 428.908 465.66 313.843 472.199C289.749 489.411 289.997 492.098 262.738 498.559C252.675 500.944 236.714 472.236 218.395 453.688C210.319 445.511 223.121 476.869 217.769 474.609C208.154 470.55 180.405 440.439 178.499 429.408C174.718 407.522 190.999 341.505 281.503 353.117C278.937 345.478 267.34 345.749 261.213 332.584C260.764 316.149 347.282 332.702 366.202 335.559C371.084 336.298 347.913 276.776 280.221 236.127C231.361 206.787 161.463 221.606 183.666 212.223C204.716 203.328 148.82 210.366 120.052 228.729C58.4096 268.072 48.3318 341.774 46.4801 311.136C44.6738 281.256 51.0396 247.565 43.5591 253.442C26.8409 266.576 -23.5057 356.334 37.5606 459.279C60.7481 498.369 122.038 522.077 106.304 521.764C86.5141 521.371 63.126 512.24 67.352 518.363C74.4526 528.65 126.068 556.404 159.543 554.147C197.002 551.621 236.517 537.112 238.554 538.285C249.55 544.624 178.945 627.03 164.494 635.891C159.912 697.906 116.045 750.141 127.817 750.554C144.138 751.127 185.398 752.258 205.3 751.581C205.3 751.581 207.375 737.281 201.304 730.3C195.595 723.735 183.853 718.765 183.853 718.765C196.492 693.875 203.248 662.097 228.989 650.776C249.146 641.911 270.999 635.015 291.023 606.675C298.686 595.831 311.631 565.334 330.856 565.529C408.216 566.312 448.511 602.152 544.924 592.763C552.862 591.988 538.072 633.611 536.63 655.151C536.12 662.754 543.426 645.583 544.748 652.545C547.87 668.977 546.064 708.214 546.159 713.41C546.318 722.119 541.792 730.108 540.334 736.89C538.662 744.664 538.665 749.85 538.665 749.85C563.436 749.458 584.672 750.572 597.305 750.114C604.816 749.843 602.064 740.724 588.37 728.794C581.542 722.846 584.766 707.108 583.4 694.304C580.144 663.792 596.688 586.673 604.016 583.382C653.965 560.951 678.878 540.368 683.118 469.152C686.021 472.507 695.241 489.261 695.799 472.923C696.86 441.838 695.471 433.002 687.634 409.016C688.487 409.666 693.525 414.571 701.396 423.513Z" stroke="black" stroke-width="1.28641"/>
<path d="M599.813 588.448C606.296 575.387 620.435 562.512 623.353 547.972" stroke="black" stroke-width="1.43723"/>
<path d="M548.228 597.463C548.467 589.665 545.303 581.357 539.64 576.346" stroke="black" stroke-width="1.43723"/>
<path d="M695.191 315.614C697.508 320.056 703.206 320.634 705.98 324.514C708.88 328.568 709.628 332.958 711.686 338.839C713.31 344.359 715.273 349.711 716.563 355.334C717.853 360.946 718.223 367.05 719.675 372.372" fill="black"/>
<path d="M625.747 257.017C629.642 259.562 633.307 262.528 636.936 265.658C638.842 267.458 642.164 269.392 643.736 271.958" fill="black"/>
<path d="M625.747 257.017C629.642 259.562 633.307 262.528 636.936 265.658C638.842 267.458 642.164 269.392 643.736 271.958" stroke="black" stroke-width="1.88261"/>
<path opacity="0.944099" d="M297.74 597.769L325.011 566.951L297.74 597.769Z" fill="#A4964C" fill-opacity="0.66782"/>
<path opacity="0.944099" d="M394.935 579.963L380.951 608.727L394.935 579.963Z" fill="#A4964C" fill-opacity="0.66782"/>
</g>
<defs>
<linearGradient id="paint0_linear_2003_1365" x1="109.481" y1="371.209" x2="671.839" y2="371.209" gradientUnits="userSpaceOnUse">
<stop stop-color="#002A7C"/>
<stop offset="0.473973" stop-color="#002A7C" stop-opacity="0.262911"/>
</linearGradient>
<linearGradient id="paint1_linear_2003_1365" x1="113.099" y1="288.295" x2="667.615" y2="288.295" gradientUnits="userSpaceOnUse">
<stop stop-color="#001F5C"/>
<stop offset="1" stop-color="#001F5C" stop-opacity="0.248826"/>
</linearGradient>
<clipPath id="clip0_2003_1365">
<rect width="738" height="796" fill="white"/>
</clipPath>
</defs>
</svg>
